<?xml version="1.0" encoding="UTF-8" standalone="no"?>
<!-- Created with Inkscape (http://www.inkscape.org/) -->

<svg
   xmlns:dc="http://purl.org/dc/elements/1.1/"
   xmlns:cc="http://creativecommons.org/ns#"
   xmlns:rdf="http://www.w3.org/1999/02/22-rdf-syntax-ns#"
   xmlns:svg="http://www.w3.org/2000/svg"
   xmlns="http://www.w3.org/2000/svg"
   xmlns:sodipodi="http://sodipodi.sourceforge.net/DTD/sodipodi-0.dtd"
   xmlns:inkscape="http://www.inkscape.org/namespaces/inkscape"
   width="210mm"
   height="297mm"
   viewBox="0 0 210 297"
   version="1.1"
   id="svg1479"
   inkscape:export-filename="C:\Users\phrij\v2.png"
   inkscape:export-xdpi="77.5028"
   inkscape:export-ydpi="77.5028"
   inkscape:version="0.92.3 (2405546, 2018-03-11)"
   sodipodi:docname="logo1.svg">
  <defs
     id="defs1473" />
  <sodipodi:namedview
     id="base"
     pagecolor="#ffffff"
     bordercolor="#666666"
     borderopacity="1.0"
     inkscape:pageopacity="0.0"
     inkscape:pageshadow="2"
     inkscape:zoom="0.64"
     inkscape:cx="833.82509"
     inkscape:cy="659.23492"
     inkscape:document-units="mm"
     inkscape:current-layer="g2259"
     showgrid="false"
     showguides="false"
     inkscape:guide-bbox="true"
     inkscape:measure-start="-129.3,1075.81"
     inkscape:measure-end="292.944,1034.4"
     inkscape:window-width="1920"
     inkscape:window-height="1017"
     inkscape:window-x="1912"
     inkscape:window-y="-8"
     inkscape:window-maximized="1"
     inkscape:snap-global="false">
    <sodipodi:guide
       position="53.975,131.49792"
       orientation="1,0"
       id="guide2035"
       inkscape:locked="false" />
    <sodipodi:guide
       position="98.689583,266.43542"
       orientation="0,1"
       id="guide2037"
       inkscape:locked="false" />
    <sodipodi:guide
       position="157.68902,228.78272"
       orientation="1,0"
       id="guide2039"
       inkscape:locked="false" />
    <sodipodi:guide
       position="78.052083,237.72812"
       orientation="1,0"
       id="guide2041"
       inkscape:locked="false" />
    <sodipodi:guide
       position="120.14601,65.481035"
       orientation="1,0"
       id="guide2043"
       inkscape:locked="false" />
    <sodipodi:guide
       position="35.279576,13.898016"
       orientation="0,1"
       id="guide2045"
       inkscape:locked="false" />
    <sodipodi:guide
       position="285.25391,199.67774"
       orientation="0,1"
       id="guide2068"
       inkscape:locked="false" />
    <sodipodi:guide
       position="96.04375,85.195833"
       orientation="0,1"
       id="guide2126"
       inkscape:locked="false" />
    <sodipodi:guide
       position="186.00208,138.1125"
       orientation="1,0"
       id="guide2150"
       inkscape:locked="false" />
  </sodipodi:namedview>
  <metadata
     id="metadata1476">
    <rdf:RDF>
      <cc:Work
         rdf:about="">
        <dc:format>image/svg+xml</dc:format>
        <dc:type
           rdf:resource="http://purl.org/dc/dcmitype/StillImage" />
        <dc:title></dc:title>
      </cc:Work>
    </rdf:RDF>
  </metadata>
  <g
     inkscape:groupmode="layer"
     id="layer5"
     inkscape:label="rough"
     style="display:none">
    <path
       id="path2139"
       style="fill:none;stroke:#ff0800;stroke-width:2.5;stroke-linecap:round;stroke-linejoin:round;stroke-miterlimit:4;stroke-dasharray:none;stroke-opacity:1"
       d="m 118.92056,90.442026 c 5.52417,-7.53003 -11.99805,-26.133519 -11.99805,-26.133519 40.35838,10.127848 72.66133,49.928563 77.60574,74.886993 2.6086,-48.188155 -19.96002,-95.452637 -53.69946,-107.129442 3.22263,27.208779 7.72968,41.565126 -39.58821,91.542192 -47.317853,49.97703 -28.155758,82.28823 0.691048,84.29724 14.290852,1.49671 44.824422,-12.65007 47.772472,-28.65977 0.36532,-1.98392 -6.0287,-3.06327 -5.9573,-5.06499 0.24433,-6.84813 2.25082,-15.88333 0.14351,-23.21859 -0.6798,-2.36628 -6.21181,-2.96921 -7.27557,-5.10869 -4.09882,-8.24377 -9.05499,-15.0499 -21.30139,-15.0499 52.36215,0.84987 57.62379,49.54679 18.55987,71.86245 -8.17317,4.21467 -18.60748,7.99701 -31.027182,7.92525 -34.5128,-0.19941 -47.258295,-28.26631 -28.031891,-62.05261 10.403827,-17.03619 24.591196,-39.22262 27.186359,-51.53643 M 84.387332,92.281883 C 74.229485,77.078431 81.623962,47.170365 97.643168,36.548796 84.06876,42.436706 69.188504,57.968792 62.643416,71.909192 c -2.743081,6.6493 -4.37727,51.210838 -7.058164,63.024588 m 0,0 c 9.605375,-11.28391 20.773355,-26.91095 29.485269,-42.263223 m 6.895216,4.324124 C 97.82487,79.105016 98.100621,61.840288 97.951459,51.657993"
       inkscape:connector-curvature="0"
       sodipodi:nodetypes="cccczcscccccscccccccccc" />
    <path
       style="fill:none;stroke:#ff0000;stroke-width:2.5;stroke-linecap:butt;stroke-linejoin:miter;stroke-miterlimit:4;stroke-dasharray:none;stroke-opacity:1"
       d="m 84.387332,92.281883 c 8.895956,3.882177 14.966725,11.206407 16.418928,20.568157"
       id="path2144"
       inkscape:connector-curvature="0"
       sodipodi:nodetypes="cc" />
    <path
       style="fill:none;stroke:#ff0000;stroke-width:2.5;stroke-linecap:butt;stroke-linejoin:miter;stroke-miterlimit:4;stroke-dasharray:none;stroke-opacity:1"
       d="M 97.764371,51.470904 C 97.474327,51.819133 93.598024,69.364039 79.83802,72.170313"
       id="path2146"
       inkscape:connector-curvature="0"
       sodipodi:nodetypes="cc" />
    <path
       sodipodi:nodetypes="cccczcscccccscccccccccc"
       inkscape:connector-curvature="0"
       d="m 118.92056,90.442026 c 5.52417,-7.53003 -11.99805,-26.133519 -11.99805,-26.133519 40.35838,10.127848 72.66133,49.928563 77.60574,74.886993 2.6086,-48.188155 -19.96002,-95.452637 -53.69946,-107.129442 3.22263,27.208779 7.72968,41.565126 -39.58821,91.542192 -47.317853,49.97703 -28.155758,82.28823 0.691048,84.29724 14.290852,1.49671 44.824422,-12.65007 47.772472,-28.65977 0.36532,-1.98392 -6.0287,-3.06327 -5.9573,-5.06499 0.24433,-6.84813 2.25082,-15.88333 0.14351,-23.21859 -0.6798,-2.36628 -6.21181,-2.96921 -7.27557,-5.10869 -4.09882,-8.24377 -9.05499,-15.0499 -21.30139,-15.0499 52.36215,0.84987 57.62379,49.54679 18.55987,71.86245 -8.17317,4.21467 -18.60748,7.99701 -31.027182,7.92525 -34.5128,-0.19941 -47.258295,-28.26631 -28.031891,-62.05261 10.403827,-17.03619 24.591196,-39.22262 27.186359,-51.53643 M 84.387332,92.281883 C 74.229485,77.078431 81.623962,47.170365 97.643168,36.548796 84.06876,42.436706 69.188504,57.968792 62.643416,71.909192 c -2.743081,6.6493 -4.37727,51.210838 -7.058164,63.024588 m 0,0 c 9.605375,-11.28391 20.773355,-26.91095 29.485269,-42.263223 m 6.895216,4.324124 C 97.82487,79.105016 98.100621,61.840288 97.951459,51.657993"
       style="fill:none;stroke:#ff0800;stroke-width:2.5;stroke-linecap:round;stroke-linejoin:round;stroke-miterlimit:4;stroke-dasharray:none;stroke-opacity:1"
       id="path2148" />
  </g>
  <g
     style="display:none"
     inkscape:label="Outer Tail, Stroke"
     id="g2169"
     inkscape:groupmode="layer">
    <path
       id="path2165"
       style="fill:none;stroke:#030000;stroke-width:3;stroke-linecap:round;stroke-linejoin:round;stroke-miterlimit:4;stroke-dasharray:none;stroke-opacity:1"
       d="m 115.56946,85.430932 c 5.52417,-7.53003 -8.89747,-21.172581 -8.89747,-21.172581 41.52768,7.496914 76.29511,43.789709 79.19324,74.886989 0.0391,-19.37961 -0.0263,-43.169579 -0.16092,-47.865789 -3.34692,-34.664457 -25.8556,-53.542468 -55.07927,-59.824915 3.22263,27.208779 -1.94799,34.51543 -39.634981,92.103454 -13.1885,20.15283 -16.55929,38.50634 -10.24901,53.19614 7.42815,17.29212 26.021761,25.87885 43.972901,26.13155 17.95114,0.25271 33.19439,-5.21008 40.73821,-12.45591 8.11703,-7.79639 13.0294,-19.30477 10.54218,-29.0662 0.36532,-1.98392 -8.65963,-2.47862 -8.58823,-4.48034 0.24433,-6.84813 2.25082,-15.88333 0.14351,-23.21859 -0.6798,-2.36628 -6.21181,-2.96921 -7.27557,-5.10869 -4.09882,-8.24377 -18.99408,-19.14246 -31.24048,-19.14246 47.10028,0.84987 64.6916,47.03088 51.49671,71.16279 -4.11823,7.53175 -11.28265,14.43715 -18.68517,19.56659 -10.20692,7.07271 -22.4472,11.0324 -42.06327,10.98277 -33.842531,-0.0856 -53.314961,-15.16203 -57.485891,-32.73229 -7.44802,-31.37515 16.67492,-48.1923 32.35991,-79.398878 12.407651,-18.6937 3.04508,-47.386735 3.04508,-47.386735 0,0 -4.35344,17.706046 -18.11344,20.51232 m 17.40827,-37.4736 c -13.57441,5.88791 -42.74928,20.360326 -43.20895,62.081976 l -0.13589,39.277617 c 17.56911,-13.18581 26.30755,-30.84174 30.82748,-43.580086 -10.49945,-15.397789 -3.50184,-47.157938 12.51736,-57.779507 z m -12.51736,57.779507 c 8.89595,3.882177 13.6396,8.322736 15.0918,17.684486"
       inkscape:connector-curvature="0"
       sodipodi:nodetypes="cccccsssscccccsssscccccccccc" />
  </g>
  <g
     inkscape:groupmode="layer"
     id="layer8"
     inkscape:label="Inner Tail, Stroke"
     style="display:none">
    <path
       id="path2241"
       style="display:inline;fill:none;stroke:#030000;stroke-width:3;stroke-linecap:round;stroke-linejoin:round;stroke-miterlimit:4;stroke-dasharray:none;stroke-opacity:1"
       d="m 121.26528,172.40379 c -17.72664,3.33085 -23.561713,-9.56863 -23.706405,-9.8628 -9.333517,-18.97586 6.184285,-53.52929 42.255155,-54.18015 -9.52407,0 -21.10817,8.47597 -24.29584,14.88718 -0.82729,1.66388 -5.12955,2.13278 -5.65824,3.97304 -1.63886,5.70466 -0.0784,12.73137 0.11161,18.05719 0.0555,1.55674 -6.96321,1.94147 -6.6791,3.48437 -1.93432,7.5915 -1.77577,18.78799 8.1987,22.6049 7.75119,2.96613 19.30095,0.85519 30.8697,-9.67119 21.1367,-19.23222 55.48955,2.01792 32.05196,26.44272 -4.15578,4.33082 -20.08828,21.84625 -54.38046,23.03685 -33.822254,1.17429 -53.314958,-15.16203 -57.485891,-32.73229 -7.448018,-31.37515 16.674918,-48.1923 32.359913,-79.398882 12.407648,-18.6937 3.045077,-47.386735 3.045077,-47.386735 0,0 -4.353435,17.706046 -18.113439,20.51232 m 35.98196,13.310775 c 5.52417,-7.53003 -8.89747,-21.172581 -8.89747,-21.172581 41.52768,7.496914 76.29511,43.789713 79.19324,74.886993 0.0391,-19.37961 -0.0263,-43.169583 -0.16092,-47.865793 -3.34692,-34.664457 -25.8556,-53.542468 -55.07927,-59.824915 3.22263,27.208779 -1.94799,34.51543 -39.63498,92.103458 -13.188497,20.15283 -16.559289,38.50634 -10.249014,53.19614 7.428154,17.29212 26.021764,25.87885 43.972904,26.13155 17.95114,0.25271 42.06752,-7.78933 49.61134,-15.03516 M 97.246293,34.696713 C 83.671885,40.584623 54.497008,55.057039 54.037337,96.778689 L 53.901454,136.05631 C 71.470563,122.8705 80.209001,105.21457 84.728927,92.47622 74.229485,77.078431 81.227087,45.318282 97.246293,34.696713 Z M 84.728927,92.47622 c 8.895956,3.882177 13.639605,8.32274 15.091805,17.68449"
       inkscape:connector-curvature="0"
       sodipodi:nodetypes="cccccccsssssccccccccssscccccccc" />
  </g>
  <g
     style="display:inline"
     inkscape:label="Inner Tail, Path"
     id="g2259"
     inkscape:groupmode="layer">
    <path
       style="color:#000000;font-style:normal;font-variant:normal;font-weight:normal;font-stretch:normal;font-size:medium;line-height:normal;font-family:sans-serif;font-variant-ligatures:normal;font-variant-position:normal;font-variant-caps:normal;font-variant-numeric:normal;font-variant-alternates:normal;font-feature-settings:normal;text-indent:0;text-align:start;text-decoration:none;text-decoration-line:none;text-decoration-style:solid;text-decoration-color:#000000;letter-spacing:normal;word-spacing:normal;text-transform:none;writing-mode:lr-tb;direction:ltr;text-orientation:mixed;dominant-baseline:auto;baseline-shift:baseline;text-anchor:start;white-space:normal;shape-padding:0;clip-rule:nonzero;display:inline;overflow:visible;visibility:visible;opacity:1;isolation:auto;mix-blend-mode:normal;color-interpolation:sRGB;color-interpolation-filters:linearRGB;solid-color:#000000;solid-opacity:1;vector-effect:none;fill:#030000;fill-opacity:1;fill-rule:nonzero;stroke:none;stroke-width:3;stroke-linecap:round;stroke-linejoin:round;stroke-miterlimit:4;stroke-dasharray:none;stroke-dashoffset:0;stroke-opacity:1;color-rendering:auto;image-rendering:auto;shape-rendering:auto;text-rendering:auto;enable-background:accumulate"
       d="m 130.89258,30.005859 a 1.50015,1.50015 0 0 0 -1.50586,1.675782 c 1.59845,13.495762 1.15172,21.648385 -4.35547,33.867187 -0.27321,0.606166 -0.72238,1.367214 -1.02148,1.994141 -5.43767,-2.041939 -11.05173,-3.669546 -16.82032,-4.710938 a 1.50015,1.50015 0 0 0 -1.29687,2.566407 c 0,0 3.5064,3.330013 6.30469,7.507812 1.39914,2.0889 2.59691,4.382168 3.10546,6.449219 0.45785,1.860931 0.29311,3.402599 -0.5039,4.761719 -3.61052,5.937016 -9.12372,14.449251 -14.4043,22.574222 -0.828446,-2.96615 -2.008659,-5.57125 -3.736327,-7.687504 12.163247,-19.553506 2.71875,-47.810547 2.71875,-47.810547 a 1.50015,1.50015 0 0 0 -2.882812,0.107422 c 0,0 -3.985074,14.932254 -15.09375,18.726563 0.178121,-2.624199 0.534304,-5.282502 1.107421,-7.91211 2.3768,-10.905361 8.048812,-21.182116 15.56836,-26.167968 a 1.50015,1.50015 0 0 0 -1.427734,-2.626954 c -6.838905,2.96638 -17.743008,8.144405 -27.013672,17.949219 -9.270665,9.804815 -16.863991,24.2837 -17.097657,45.492188 a 1.50015,1.50015 0 0 0 0,0.01172 l -0.134765,39.277342 a 1.50015,1.50015 0 0 0 2.40039,1.20508 c 17.215718,-12.92059 25.964084,-29.92612 30.6875,-42.69336 3.10191,1.464363 5.573713,3.048107 7.47461,4.882812 -7.662633,14.882688 -17.230796,26.592858 -24.207032,38.476568 -7.151265,12.18186 -11.491894,24.76888 -7.669921,40.86914 4.365244,18.3888 24.671733,35.07648 58.996089,33.88476 34.78593,-1.20774 51.32916,-19.24312 55.41211,-23.49805 6.06138,-6.31668 8.54707,-12.63358 8.26758,-18.2539 -0.27949,-5.62032 -3.33151,-10.39563 -7.78711,-13.59571 -8.91119,-6.40014 -23.55405,-6.81561 -34.625,3.25782 -7.11184,6.47104 -14.10241,9.57667 -20.07226,10.3164 a 1.50015,1.50015 0 0 0 -0.17578,0.01 1.50015,1.50015 0 0 0 -0.0117,0 c -3.41726,0.39556 -6.50407,0.0345 -9.06446,-0.94531 -4.53248,-1.73444 -6.68581,-4.96811 -7.64453,-8.84571 -0.95252,-3.85254 -0.55695,-8.30897 0.35157,-11.91211 0.0502,-0.0294 0.0248,-0.0184 0.10546,-0.0547 0.44488,-0.19993 1.25882,-0.4442 2.11328,-0.68555 0.85447,-0.24135 1.75026,-0.48325 2.55274,-0.83008 0.40124,-0.17341 0.7869,-0.36269 1.16992,-0.69726 0.38302,-0.33458 0.82195,-0.95861 0.79492,-1.7168 -0.19876,-5.57128 -1.64875,-12.44222 -0.16992,-17.58984 -0.0122,0.0426 0.0434,-0.10138 0.38477,-0.33008 0.34131,-0.22871 0.89126,-0.49329 1.50195,-0.76563 0.61069,-0.27234 1.28156,-0.55543 1.92578,-0.92968 0.64422,-0.37426 1.32298,-0.83845 1.74805,-1.69336 1.38866,-2.79296 4.93588,-6.44996 9.24805,-9.25782 4.28771,-2.79193 9.32781,-4.76667 13.6289,-4.78906 0.0358,-7.1e-4 0.0677,-0.007 0.10352,-0.008 a 1.50015,1.50015 0 0 0 -0.0274,-3 c -0.009,0 -0.0183,0.002 -0.0273,0.002 v -0.002 c -37.02058,0.66799 -53.516655,36.12795 -43.574219,56.34179 -0.05889,-0.11972 0.136486,0.29576 0.367187,0.71094 0.230701,0.41518 0.568697,0.97668 1.025391,1.625 0.913388,1.29664 2.30607,2.94652 4.296871,4.48047 3.90908,3.01202 10.20476,5.45338 19.17383,3.90039 6.82997,-0.69662 14.6076,-4.1186 22.29492,-11.11328 10.06575,-9.15879 23.16547,-8.56604 30.85547,-3.04297 3.84501,2.76154 6.31065,6.67605 6.54102,11.3086 0.2255,4.5346 -1.74735,9.90571 -7.13477,15.66015 a 1.50015,1.50015 0 0 0 -0.0957,0.0859 c -3.39593,3.26179 -11.22334,7.13551 -20.3125,9.98047 -9.08916,2.84496 -19.4961,4.75979 -28.23828,4.63672 -17.48752,-0.24618 -35.476245,-8.59914 -42.617189,-25.22266 -6.054982,-14.0955 -2.897171,-31.88154 10.126953,-51.7832 C 103.0257,108.33981 110.81345,96.416028 116.81445,86.609375 a 1.50015,1.50015 0 0 0 0.21485,-0.240234 c 0.33448,-0.45593 0.56424,-0.943613 0.7832,-1.433594 3.05797,-5.056174 5.58346,-9.566564 7.61523,-13.582031 13.05504,5.309054 24.92553,13.251672 34.5293,22.621093 14.04786,13.705061 23.26337,30.308861 24.66602,45.359371 a 1.50015,1.50015 0 0 0 2.99218,-0.13476 c 0.0391,-19.38546 -0.0218,-43.084774 -0.16015,-47.912111 a 1.50015,1.50015 0 0 0 -0.008,-0.101562 C 184.04352,55.93259 160.864,36.418019 131.19141,30.039062 a 1.50015,1.50015 0 0 0 -0.29883,-0.0332 z m 1.64844,3.513672 c 27.75512,6.597094 48.69062,24.676261 51.91406,57.921875 0.0937,3.312532 0.10237,19.929494 0.11523,34.285154 -4.13657,-11.84893 -12.02904,-23.66584 -22.51758,-33.898435 -9.81272,-9.573274 -21.90679,-17.695414 -35.25195,-23.158203 0.28292,-0.595921 0.70542,-1.308746 0.9668,-1.888672 5.36751,-11.908891 6.06225,-20.808569 4.77344,-33.261719 z m -43.167973,6.710938 c -4.666468,5.829766 -8.072075,13.34123 -9.794922,21.246093 -0.74606,3.423116 -1.086959,6.877398 -1.205078,10.296876 a 1.50015,1.50015 0 0 0 0.01367,0.855468 c -0.13345,7.409049 1.21804,14.480484 4.677734,19.953125 -4.290594,11.895279 -12.310665,27.774629 -27.650391,40.271489 l 0.123047,-36.058598 v -0.01172 C 55.765842,76.276836 62.990907,62.662013 71.814453,53.330078 77.491306,47.326141 83.767238,43.249033 89.373047,40.230469 Z m 8.328125,16.439453 c 1.899907,8.365405 4.663078,26.723756 -3.244141,40.146484 C 92.110595,94.708529 89.311192,92.924302 85.84375,91.371094 82.722813,86.655763 81.387325,80.142766 81.416016,73.189453 90.759359,70.581497 95.511932,62.106562 97.701172,56.669922 Z m 13.490238,10.136719 c 3.888,0.911484 7.71397,2.031141 11.44336,3.417968 -1.29735,2.548279 -2.74807,5.281684 -4.47461,8.259766 -0.65738,-2.553175 -1.9854,-5.030502 -3.47071,-7.248047 -1.17683,-1.756993 -2.37451,-3.128232 -3.49804,-4.429687 z M 95.013672,101.92188 c 1.517966,2.16607 2.647481,4.69258 3.222656,8.10351 -2.922972,4.48342 -4.798367,7.48741 -8.25,12.76172 -13.35287,20.404 -16.938615,39.32527 -10.373047,54.60937 7.715363,17.96072 26.915319,26.77984 45.330079,27.03907 9.20895,0.12964 19.83496,-1.8491 29.17773,-4.77344 2.84614,-0.89086 5.49705,-1.88009 8.02344,-2.91016 -8.5822,5.92087 -22.03729,12.227 -42.16406,12.92578 -33.320149,1.15686 -51.997989,-14.82836 -55.974611,-31.58007 -3.626045,-15.2749 0.370397,-26.78606 7.339844,-38.65821 6.626479,-11.28791 15.944128,-22.85138 23.667969,-37.51757 z m 28.408208,11.06445 c -4.1306,2.88741 -7.59883,6.28068 -9.2461,9.59375 0.0114,-0.023 -0.15866,0.1964 -0.57031,0.43554 -0.41165,0.23915 -1.0043,0.50031 -1.63867,0.78321 -0.63437,0.2829 -1.31127,0.58489 -1.95118,1.01367 -0.6399,0.42878 -1.32107,1.03141 -1.59765,1.99414 -1.7473,6.08212 -0.24538,12.97015 0.01,18.01953 -0.0535,0.028 -0.0406,0.028 -0.11132,0.0586 -0.48905,0.21136 -1.31997,0.45498 -2.17774,0.69726 -0.85776,0.24229 -1.7398,0.48114 -2.52929,0.83594 -0.39475,0.1774 -0.77695,0.37075 -1.15821,0.74414 -0.38126,0.37339 -0.77088,1.13384 -0.63476,1.87305 l 0.0234,-0.64258 c -1.01314,3.97623 -1.49973,8.87452 -0.36914,13.44726 0.55712,2.25331 1.5564,4.42914 3.06836,6.31055 -0.25196,-0.17515 -0.57148,-0.32617 -0.80468,-0.50586 -1.70188,-1.31133 -2.9024,-2.73332 -3.67774,-3.83398 -0.387669,-0.55033 -0.668171,-1.01996 -0.853515,-1.35352 -0.185344,-0.33355 -0.203766,-0.38485 -0.298828,-0.57812 -7.20541,-14.64923 1.498663,-40.09925 24.517583,-48.89258 z"
       id="path2257"
       inkscape:connector-curvature="0" />
  </g>
</svg>
